<?xml version="1.0" encoding="utf-8"?>
<!-- Generator: Adobe Illustrator 16.0.0, SVG Export Plug-In . SVG Version: 6.00 Build 0)  -->
<!DOCTYPE svg PUBLIC "-//W3C//DTD SVG 1.1//EN" "http://www.w3.org/Graphics/SVG/1.1/DTD/svg11.dtd">
<svg version="1.1" xmlns="http://www.w3.org/2000/svg" xmlns:xlink="http://www.w3.org/1999/xlink" x="0px" y="0px"
	 width="377.594px" height="298.24px" viewBox="0 0 377.594 298.24" enable-background="new 0 0 377.594 298.24"
	 xml:space="preserve">
<g id="painting">
</g>
<g id="body">
</g>
<g id="arm">
	<g>
		<path fill="#1B1464" d="M151.234,134.348c0,0-53.048-72.636-95.146-87.612c0,0-1.162,12.944-13.608,18.012
			C42.48,64.748,132.308,135.781,151.234,134.348"/>
		<path fill="#78481D" d="M56.172,53.123c-0.867,2.378-2.127,5.128-3.88,7.455c-3.221,4.275-9.809,5.679-14.561,3.215
			c-7.703-3.995-21.799-14.936-16.49-40.06c0,0,0.438,2.614,1.949,5.263c1.786,3.132,5.147,5,8.75,5.148
			c3.975,0.165,12.454,1.554,21.748,9.458C56.429,45.932,57.403,49.744,56.172,53.123"/>
		<path fill="#FF9D7D" d="M256.796,210.264l-7.431,71.43c-92.77-44.47-98.27-117.78-98.27-117.78l0.35-0.34l-1.55,1.3
			c-14.93-51.45-47.83-57.87-47.83-57.87c-15.939-27.98,2.811-27.31,2.811-27.31c47.46,3.82,74.8,38.88,82.028,49.48
			c0.882,1.3,1.472,2.23,1.75,2.69c0.052,0.13,0.092,0.25,0.142,0.38C208.226,190.583,256.796,210.264,256.796,210.264"/>
		<path fill="#333333" d="M348.398,89.267c-33.264,23.37-73.124,62.053-91.106,120.495l-7.423,71.429l92.412-55.598l35.313-62.688
			l-12.595-76.04L348.398,89.267z"/>
	</g>
</g>
</svg>
