<?xml version="1.0" encoding="utf-8"?>
<!-- Generator: Adobe Illustrator 16.0.0, SVG Export Plug-In . SVG Version: 6.00 Build 0)  -->
<!DOCTYPE svg PUBLIC "-//W3C//DTD SVG 1.1//EN" "http://www.w3.org/Graphics/SVG/1.1/DTD/svg11.dtd">
<svg version="1.1" xmlns="http://www.w3.org/2000/svg" xmlns:xlink="http://www.w3.org/1999/xlink" x="0px" y="0px"
	 width="387.038px" height="1243.23px" viewBox="0 0 387.038 1243.23" enable-background="new 0 0 387.038 1243.23"
	 xml:space="preserve">
<g id="painting">
</g>
<g id="body">
	<g>
		<path fill="#FF9D7D" d="M111.287,92.53c0,0-29.813,34.072-26.386,92.326c1.104,18.759,7.593,36.782,18.954,51.751
			c23.241,30.617,73.157,72.073,147.824,8.517"/>
		<path d="M327.737,762.659c-0.9-18.08-1.181-28.02-1.181-28.02l-49.091-1.629l-2.569-0.081l1.2-1.4l28.42-33.39l-193.1-47.74
			l-70.75,74.76l65.82,2.182l-57.91,20.979c45.42,32.05,112.66,366.601,119.09,399c-102.1-14.99-78.84,33.771-78.84,33.771
			c26.2,25.269,136.649,22.46,136.649,22.46l4.569-56.472c63.911,33.49,144.241,22.78,144.241,22.78
			C341.577,986.68,330.887,825.511,327.737,762.659 M231.067,1134.489l16.189-200.199l52.62,190.64
			C260.177,1105.56,239.847,1122.261,231.067,1134.489"/>
		<path d="M139.753,123.25c0,0-83.354-51.087,0-86.042c0,0,139.818-43.021,193.595,69.909c0,0,32.266,56.466-86.042,150.574
			C247.306,257.691,180.085,324.912,139.753,123.25"/>
		<path fill="#333333" d="M326.695,373.833c1.964-22.473-4.473-44.927-18.363-62.702c-27.321-34.962-86.771-74.869-206.769-28.684
			c0,0-24.029,8.727-53.094,29.145L25.752,450.319c0,0-22.463,190.934,25.271,300.439c0,0,115.122-33.694,277.977-11.231
			C328.999,739.527,308.162,585.854,326.695,373.833"/>
	</g>
</g>
<g id="arm">
</g>
</svg>
